<svg width="41" height="47" viewBox="0 0 41 47" fill="none" xmlns="http://www.w3.org/2000/svg">
<path d="M18.2695 45.0218C13.1746 42.0935 8.08514 39.1574 3.00129 36.2136C2.13282 35.7103 1.54105 35.0473 1.22595 34.2245C1.05448 33.7735 0.96875 32.9368 0.96875 31.7144C0.96875 26.0715 0.969308 20.4292 0.970422 14.7876C0.972092 12.6431 1.4748 11.6828 3.25515 10.654C8.27664 7.75135 13.2998 4.85146 18.3247 1.95434C19.2488 1.42214 19.9347 1.11316 20.3823 1.02743C21.1995 0.871551 21.976 1.00572 22.7121 1.42993C28.17 4.58424 33.6297 7.73631 39.0909 10.8862C39.8737 11.3382 40.4148 11.9628 40.7143 12.76C40.8814 13.2043 40.9654 13.9497 40.9665 14.9963C40.9688 20.9654 40.9693 26.9338 40.9682 32.9017C40.9682 34.7405 39.9444 35.629 38.3378 36.5576C33.1648 39.5494 27.9902 42.5378 22.814 45.5228C22.0301 45.976 21.2257 46.1285 20.4006 45.9805C19.9542 45.9014 19.2438 45.5819 18.2695 45.0218ZM20.8299 23.4122C15.952 20.6118 11.0568 17.786 6.14446 14.9345C5.83382 14.7542 5.60001 14.6584 5.44301 14.6473C4.89354 14.6055 4.52445 15.0297 4.52445 15.5742C4.52778 21.2248 4.53781 26.8754 4.55451 32.5259C4.55562 32.8455 4.69368 33.0849 4.96869 33.2442C9.7241 35.9932 14.4789 38.7422 19.2332 41.4913C19.7392 41.7834 20.2186 42.069 20.6512 41.6916C20.8638 41.5056 20.9702 41.3175 20.9702 41.1271C20.969 35.2694 20.9729 29.4196 20.9818 23.5774C20.9818 23.5307 21.0024 23.4956 21.0436 23.4722C26.0707 20.5707 31.0944 17.6702 36.1148 14.7709C36.6693 14.4519 36.7328 13.6252 36.1516 13.2895C31.5276 10.6217 26.903 7.95399 22.2779 5.28625C21.6349 4.91548 20.9635 5.34803 20.9651 6.05451C20.9685 11.734 20.9663 17.4948 20.9585 23.3369C20.9585 23.436 20.9156 23.4611 20.8299 23.4122ZM26.9932 36.032C27.5135 36.3336 28.1312 36.4555 28.8109 36.3908C29.4906 36.3261 30.2192 36.0759 30.9549 35.6547C31.6906 35.2335 32.4191 34.6495 33.0987 33.9358C33.7784 33.2222 34.3959 32.393 34.9161 31.4957C35.4363 30.5984 35.8488 29.6505 36.1303 28.706C36.4117 27.7616 36.5566 26.8392 36.5565 25.9914C36.5564 25.1436 36.4114 24.3871 36.1297 23.7651C35.8481 23.1431 35.4354 22.6677 34.9151 22.3661C34.3948 22.0645 33.7771 21.9427 33.0974 22.0074C32.4177 22.0722 31.6891 22.3222 30.9534 22.7434C30.2177 23.1647 29.4892 23.7488 28.8095 24.4624C28.1299 25.176 27.5124 26.0051 26.9922 26.9024C26.472 27.7997 26.0595 28.7477 25.778 29.6921C25.4965 30.6365 25.3517 31.559 25.3518 32.4067C25.3519 33.2545 25.4969 34.0111 25.7786 34.633C26.0602 35.2551 26.4729 35.7304 26.9932 36.032Z" fill="#158A8A"/>
</svg>
