<svg width="182" height="45" viewBox="0 0 182 45" fill="none" xmlns="http://www.w3.org/2000/svg">
<path d="M17.2737 43.9882C12.1867 41.0645 7.10525 38.133 2.02936 35.1938C1.16225 34.6913 0.571401 34.0293 0.256798 33.2078C0.0856001 32.7575 0 31.9221 0 30.7016C0 25.0676 0.000557466 19.4341 0.00166913 13.8014C0.00333664 11.6602 0.505255 10.7014 2.28282 9.67423C7.29645 6.77612 12.3117 3.88077 17.3288 0.988195C18.2514 0.45682 18.9362 0.14833 19.3831 0.0627314C20.1991 -0.0929025 20.9744 0.0410545 21.7093 0.464601C27.1587 3.61397 32.6098 6.76111 38.0625 9.90607C38.844 10.3574 39.3843 10.981 39.6833 11.7769C39.8501 12.2205 39.934 12.9648 39.9351 14.0097C39.9374 19.9695 39.9379 25.9285 39.9368 31.8871C39.9368 33.723 38.9146 34.6101 37.3105 35.5373C32.1456 38.5244 26.9791 41.5081 21.811 44.4884C21.0284 44.9409 20.2252 45.0932 19.4014 44.9454C18.9557 44.8664 18.2464 44.5474 17.2737 43.9882ZM19.83 22.4124C14.9598 19.6164 10.0723 16.7951 5.1676 13.948C4.85745 13.768 4.62401 13.6724 4.46725 13.6613C3.91864 13.6195 3.55013 14.0431 3.55013 14.5867C3.55346 20.2285 3.56347 25.8702 3.58014 31.5119C3.58125 31.831 3.7191 32.07 3.99368 32.229C8.74164 34.9737 13.489 37.7184 18.2358 40.4632C18.7411 40.7549 19.2197 41.04 19.6516 40.6632C19.8639 40.4775 19.9701 40.2897 19.9701 40.0996C19.9689 34.2511 19.9728 28.4104 19.9817 22.5774C19.9817 22.5308 20.0023 22.4957 20.0434 22.4724C25.0626 19.5754 30.0785 16.6794 35.091 13.7847C35.6446 13.4662 35.708 12.6408 35.1278 12.3056C30.511 9.64199 25.8936 6.97844 21.2758 4.31488C20.6338 3.94469 19.9634 4.37657 19.965 5.08194C19.9684 10.7525 19.9662 16.5043 19.9584 22.3373C19.9584 22.4362 19.9156 22.4613 19.83 22.4124ZM25.9837 35.0125C26.5032 35.3136 27.1199 35.4353 27.7985 35.3707C28.4772 35.3061 29.2046 35.0563 29.9392 34.6358C30.6737 34.2152 31.4011 33.6321 32.0796 32.9196C32.7583 32.2071 33.3748 31.3792 33.8942 30.4833C34.4136 29.5874 34.8254 28.641 35.1065 27.698C35.3874 26.755 35.5321 25.8341 35.532 24.9876C35.5319 24.1411 35.3871 23.3858 35.1059 22.7648C34.8247 22.1438 34.4127 21.6691 33.8932 21.368C33.3737 21.0669 32.757 20.9452 32.0783 21.0098C31.3997 21.0745 30.6722 21.3242 29.9377 21.7447C29.2031 22.1653 28.4758 22.7485 27.7972 23.461C27.1186 24.1735 26.5021 25.0013 25.9827 25.8972C25.4633 26.7931 25.0515 27.7396 24.7704 28.6825C24.4893 29.6254 24.3448 30.5465 24.3449 31.3929C24.345 32.2393 24.4897 32.9947 24.771 33.6157C25.0522 34.2368 25.4642 34.7114 25.9837 35.0125Z" fill="#158A8A"/>
<path d="M55.4685 24.7774H64.7549C64.7079 23.5063 64.2841 22.4705 63.4838 21.6702C62.6834 20.8463 61.5535 20.4343 60.0941 20.4343C58.7758 20.4343 57.693 20.8698 56.8456 21.7408C55.9981 22.5882 55.5391 23.6004 55.4685 24.7774ZM65.2493 29.1912L68.1094 30.1798C67.615 31.757 66.697 33.0517 65.3552 34.0639C64.0134 35.0526 62.3892 35.5469 60.4825 35.5469C58.1049 35.5469 56.0805 34.7348 54.4092 33.1105C52.7614 31.4627 51.9375 29.25 51.9375 26.4723C51.9375 23.8829 52.7379 21.7408 54.3386 20.0459C55.9393 18.3511 57.846 17.5036 60.0587 17.5036C62.6246 17.5036 64.6255 18.3158 66.0614 19.94C67.4973 21.5407 68.2153 23.6946 68.2153 26.4017C68.2153 26.8254 68.1918 27.1785 68.1447 27.461H55.3625C55.3861 28.9675 55.8804 30.2034 56.8456 31.1685C57.8342 32.1336 59.0465 32.6162 60.4825 32.6162C62.9071 32.6162 64.496 31.4745 65.2493 29.1912Z" fill="white"/>
<path d="M83.6454 35.5469C80.2321 35.5469 77.3014 34.3699 74.8532 32.0159C72.4286 29.662 71.2163 26.4841 71.2163 22.4823C71.2163 19.7988 71.8284 17.4448 73.0525 15.4204C74.2765 13.3959 75.8184 11.9011 77.678 10.936C79.5377 9.94734 81.5268 9.453 83.6454 9.453C86.4702 9.453 88.8477 10.171 90.7779 11.6069C92.7318 13.0193 94.0264 14.9496 94.662 17.3977L91.4488 18.5276C90.978 16.6444 90.0717 15.1967 88.73 14.1845C87.3882 13.1488 85.6933 12.6309 83.6454 12.6309C81.1972 12.6309 79.1022 13.5019 77.3602 15.2438C75.6183 16.9622 74.7473 19.375 74.7473 22.4823C74.7473 25.5896 75.6183 28.0142 77.3602 29.7561C79.1022 31.4981 81.1972 32.369 83.6454 32.369C85.6933 32.369 87.4 31.8276 88.7653 30.7448C90.1306 29.6384 91.084 28.1789 91.6254 26.3664L94.6973 27.4963C94.0147 29.9209 92.6964 31.8747 90.7426 33.3577C88.8124 34.8172 86.4466 35.5469 83.6454 35.5469Z" fill="white"/>
<path d="M101.741 30.992C102.776 32.0512 104.036 32.5809 105.519 32.5809C107.002 32.5809 108.249 32.0512 109.261 30.992C110.297 29.9091 110.815 28.4143 110.815 26.5076C110.815 24.6244 110.297 23.1532 109.261 22.0939C108.249 21.0111 107.002 20.4696 105.519 20.4696C104.036 20.4696 102.776 21.0111 101.741 22.0939C100.728 23.1532 100.222 24.6244 100.222 26.5076C100.222 28.4143 100.728 29.9091 101.741 30.992ZM99.2688 20.0812C100.917 18.3628 103 17.5036 105.519 17.5036C108.037 17.5036 110.109 18.3628 111.733 20.0812C113.381 21.7761 114.205 23.9182 114.205 26.5076C114.205 29.1205 113.393 31.2862 111.768 33.0046C110.144 34.6995 108.061 35.5469 105.519 35.5469C102.976 35.5469 100.893 34.6995 99.2688 33.0046C97.6446 31.2862 96.8325 29.1205 96.8325 26.5076C96.8325 23.9182 97.6446 21.7761 99.2688 20.0812Z" fill="white"/>
<path d="M129.472 32.9693C129.025 33.8167 128.342 34.4641 127.424 34.9113C126.506 35.335 125.517 35.5469 124.458 35.5469C122.528 35.5469 120.986 34.9113 119.833 33.6402C118.679 32.3455 118.102 30.7095 118.102 28.7321V18.0333H121.422V28.2378C121.422 29.5089 121.728 30.5565 122.34 31.3804C122.975 32.2043 123.952 32.6162 125.27 32.6162C126.589 32.6162 127.589 32.2278 128.272 31.451C128.954 30.6506 129.296 29.5913 129.296 28.2731V18.0333H132.615V31.8747C132.615 32.9811 132.674 34.0286 132.791 35.0173H129.613C129.519 34.4994 129.472 33.8167 129.472 32.9693Z" fill="white"/>
<path d="M147.706 17.8567V21.3877C147.212 21.3171 146.729 21.2818 146.259 21.2818C143.151 21.2818 141.598 23.0237 141.598 26.5076V35.0173H138.279V18.0333H141.527V20.9993C142.563 18.8336 144.258 17.7508 146.612 17.7508C146.988 17.7508 147.353 17.7861 147.706 17.8567Z" fill="white"/>
<path d="M149.655 30.6035L152.656 29.5443C152.774 30.4623 153.174 31.2273 153.857 31.8394C154.54 32.4279 155.458 32.7221 156.611 32.7221C157.506 32.7221 158.212 32.5103 158.73 32.0866C159.247 31.6393 159.506 31.0979 159.506 30.4623C159.506 29.3324 158.777 28.6027 157.317 28.2731L154.422 27.6375C153.104 27.355 152.068 26.7901 151.315 25.9427C150.561 25.0952 150.185 24.0712 150.185 22.8707C150.185 21.4112 150.773 20.1519 151.95 19.0926C153.151 18.0333 154.575 17.5036 156.223 17.5036C157.305 17.5036 158.271 17.6684 159.118 17.998C159.965 18.304 160.625 18.7159 161.095 19.2338C161.566 19.7517 161.919 20.2342 162.155 20.6815C162.39 21.1288 162.567 21.5878 162.684 22.0586L159.754 23.1532C159.707 22.8707 159.624 22.6 159.506 22.3411C159.389 22.0586 159.2 21.7526 158.941 21.423C158.706 21.0935 158.353 20.8345 157.882 20.6462C157.411 20.4343 156.858 20.3284 156.223 20.3284C155.399 20.3284 154.716 20.552 154.175 20.9993C153.657 21.4465 153.398 21.9762 153.398 22.5882C153.398 23.6711 154.045 24.3537 155.34 24.6362L158.094 25.2365C159.601 25.566 160.754 26.1781 161.554 27.0726C162.378 27.9435 162.79 29.0146 162.79 30.2858C162.79 31.6275 162.237 32.8398 161.131 33.9227C160.048 35.0055 158.53 35.5469 156.576 35.5469C154.481 35.5469 152.845 35.029 151.668 33.9933C150.491 32.934 149.82 31.8041 149.655 30.6035Z" fill="white"/>
<path d="M169.191 24.7774H178.477C178.43 23.5063 178.006 22.4705 177.206 21.6702C176.406 20.8463 175.276 20.4343 173.816 20.4343C172.498 20.4343 171.415 20.8698 170.568 21.7408C169.72 22.5882 169.261 23.6004 169.191 24.7774ZM178.971 29.1912L181.832 30.1798C181.337 31.757 180.419 33.0517 179.077 34.0639C177.736 35.0526 176.111 35.5469 174.205 35.5469C171.827 35.5469 169.803 34.7348 168.131 33.1105C166.484 31.4627 165.66 29.25 165.66 26.4723C165.66 23.8829 166.46 21.7408 168.061 20.0459C169.661 18.3511 171.568 17.5036 173.781 17.5036C176.347 17.5036 178.348 18.3158 179.784 19.94C181.22 21.5407 181.937 23.6946 181.937 26.4017C181.937 26.8254 181.914 27.1785 181.867 27.461H169.085C169.108 28.9675 169.603 30.2034 170.568 31.1685C171.556 32.1336 172.769 32.6162 174.205 32.6162C176.629 32.6162 178.218 31.4745 178.971 29.1912Z" fill="white"/>
</svg>
